0
SECTION
2
HEADER
9
$ACADVER
1
AC1009
0
ENDSEC
0
SECTION
2
TABLES
0
TABLE
2
LAYER
70
6
0
LAYER
2
0
70
0
62
7
6
CONTINUOUS
0
LAYER
2
WING_MAIN
70
0
62
3
6
CONTINUOUS
0
LAYER
2
H_TAIL
70
0
62
3
6
CONTINUOUS
0
LAYER
2
V_TAIL
70
0
62
3
6
CONTINUOUS
0
LAYER
2
AIRFOIL_ROOT
70
0
62
5
6
CONTINUOUS
0
LAYER
2
CG_NP
70
0
62
1
6
CONTINUOUS
0
ENDTAB
0
ENDSEC
0
SECTION
2
ENTITIES
0
POLYLINE
8
WING_MAIN
66
1
70
1
0
VERTEX
8
WING_MAIN
10
0.210945
20
0.000000
30
0.0
0
VERTEX
8
WING_MAIN
10
0.210945
20
0.639226
30
0.0
0
VERTEX
8
WING_MAIN
10
0.330800
20
0.639226
30
0.0
0
VERTEX
8
WING_MAIN
10
0.410703
20
0.000000
30
0.0
0
VERTEX
8
WING_MAIN
10
0.330800
20
-0.639226
30
0.0
0
VERTEX
8
WING_MAIN
10
0.210945
20
-0.639226
30
0.0
0
VERTEX
8
WING_MAIN
10
0.210945
20
0.000000
30
0.0
0
SEQEND
8
WING_MAIN
0
POLYLINE
8
H_TAIL
66
1
70
1
0
VERTEX
8
H_TAIL
10
0.786248
20
0.000000
30
0.0
0
VERTEX
8
H_TAIL
10
0.786248
20
0.180521
30
0.0
0
VERTEX
8
H_TAIL
10
0.850434
20
0.180521
30
0.0
0
VERTEX
8
H_TAIL
10
0.866480
20
0.000000
30
0.0
0
VERTEX
8
H_TAIL
10
0.850434
20
-0.180521
30
0.0
0
VERTEX
8
H_TAIL
10
0.786248
20
-0.180521
30
0.0
0
VERTEX
8
H_TAIL
10
0.786248
20
0.000000
30
0.0
0
SEQEND
8
H_TAIL
0
POLYLINE
8
V_TAIL
66
1
70
1
0
VERTEX
8
V_TAIL
10
0.766248
20
0.000000
30
0.0
0
VERTEX
8
V_TAIL
10
0.903482
20
0.000000
30
0.0
0
VERTEX
8
V_TAIL
10
0.906858
20
0.154388
30
0.0
0
VERTEX
8
V_TAIL
10
0.838241
20
0.154388
30
0.0
0
VERTEX
8
V_TAIL
10
0.766248
20
0.000000
30
0.0
0
SEQEND
8
V_TAIL
0
POLYLINE
8
AIRFOIL_ROOT
66
1
70
1
0
VERTEX
8
AIRFOIL_ROOT
10
0.000000
20
-0.500000
30
0.0
0
VERTEX
8
AIRFOIL_ROOT
10
0.000142
20
-0.499063
30
0.0
0
VERTEX
8
AIRFOIL_ROOT
10
0.000566
20
-0.498149
30
0.0
0
VERTEX
8
AIRFOIL_ROOT
10
0.001272
20
-0.497259
30
0.0
0
VERTEX
8
AIRFOIL_ROOT
10
0.002257
20
-0.496394
30
0.0
0
VERTEX
8
AIRFOIL_ROOT
10
0.003519
20
-0.495556
30
0.0
0
VERTEX
8
AIRFOIL_ROOT
10
0.005054
20
-0.494748
30
0.0
0
VERTEX
8
AIRFOIL_ROOT
10
0.006858
20
-0.493973
30
0.0
0
VERTEX
8
AIRFOIL_ROOT
10
0.008926
20
-0.493234
30
0.0
0
VERTEX
8
AIRFOIL_ROOT
10
0.011251
20
-0.492533
30
0.0
0
VERTEX
8
AIRFOIL_ROOT
10
0.013828
20
-0.491874
30
0.0
0
VERTEX
8
AIRFOIL_ROOT
10
0.016648
20
-0.491259
30
0.0
0
VERTEX
8
AIRFOIL_ROOT
10
0.019705
20
-0.490692
30
0.0
0
VERTEX
8
AIRFOIL_ROOT
10
0.022989
20
-0.490174
30
0.0
0
VERTEX
8
AIRFOIL_ROOT
10
0.026491
20
-0.489709
30
0.0
0
VERTEX
8
AIRFOIL_ROOT
10
0.030200
20
-0.489299
30
0.0
0
VERTEX
8
AIRFOIL_ROOT
10
0.034108
20
-0.488944
30
0.0
0
VERTEX
8
AIRFOIL_ROOT
10
0.038201
20
-0.488646
30
0.0
0
VERTEX
8
AIRFOIL_ROOT
10
0.042470
20
-0.488405
30
0.0
0
VERTEX
8
AIRFOIL_ROOT
10
0.046901
20
-0.488222
30
0.0
0
VERTEX
8
AIRFOIL_ROOT
10
0.051483
20
-0.488096
30
0.0
0
VERTEX
8
AIRFOIL_ROOT
10
0.056201
20
-0.488027
30
0.0
0
VERTEX
8
AIRFOIL_ROOT
10
0.061044
20
-0.488013
30
0.0
0
VERTEX
8
AIRFOIL_ROOT
10
0.065996
20
-0.488051
30
0.0
0
VERTEX
8
AIRFOIL_ROOT
10
0.071045
20
-0.488141
30
0.0
0
VERTEX
8
AIRFOIL_ROOT
10
0.076175
20
-0.488280
30
0.0
0
VERTEX
8
AIRFOIL_ROOT
10
0.081373
20
-0.488464
30
0.0
0
VERTEX
8
AIRFOIL_ROOT
10
0.086623
20
-0.488691
30
0.0
0
VERTEX
8
AIRFOIL_ROOT
10
0.091910
20
-0.488958
30
0.0
0
VERTEX
8
AIRFOIL_ROOT
10
0.097220
20
-0.489261
30
0.0
0
VERTEX
8
AIRFOIL_ROOT
10
0.102538
20
-0.489596
30
0.0
0
VERTEX
8
AIRFOIL_ROOT
10
0.107848
20
-0.489961
30
0.0
0
VERTEX
8
AIRFOIL_ROOT
10
0.113136
20
-0.490352
30
0.0
0
VERTEX
8
AIRFOIL_ROOT
10
0.118386
20
-0.490764
30
0.0
0
VERTEX
8
AIRFOIL_ROOT
10
0.123583
20
-0.491196
30
0.0
0
VERTEX
8
AIRFOIL_ROOT
10
0.128713
20
-0.491644
30
0.0
0
VERTEX
8
AIRFOIL_ROOT
10
0.133762
20
-0.492104
30
0.0
0
VERTEX
8
AIRFOIL_ROOT
10
0.138715
20
-0.492573
30
0.0
0
VERTEX
8
AIRFOIL_ROOT
10
0.143557
20
-0.493048
30
0.0
0
VERTEX
8
AIRFOIL_ROOT
10
0.148276
20
-0.493527
30
0.0
0
VERTEX
8
AIRFOIL_ROOT
10
0.152857
20
-0.494006
30
0.0
0
VERTEX
8
AIRFOIL_ROOT
10
0.157288
20
-0.494483
30
0.0
0
VERTEX
8
AIRFOIL_ROOT
10
0.161557
20
-0.494955
30
0.0
0
VERTEX
8
AIRFOIL_ROOT
10
0.165651
20
-0.495419
30
0.0
0
VERTEX
8
AIRFOIL_ROOT
10
0.169558
20
-0.495872
30
0.0
0
VERTEX
8
AIRFOIL_ROOT
10
0.173268
20
-0.496312
30
0.0
0
VERTEX
8
AIRFOIL_ROOT
10
0.176769
20
-0.496736
30
0.0
0
VERTEX
8
AIRFOIL_ROOT
10
0.180053
20
-0.497142
30
0.0
0
VERTEX
8
AIRFOIL_ROOT
10
0.183110
20
-0.497526
30
0.0
0
VERTEX
8
AIRFOIL_ROOT
10
0.185930
20
-0.497887
30
0.0
0
VERTEX
8
AIRFOIL_ROOT
10
0.188507
20
-0.498223
30
0.0
0
VERTEX
8
AIRFOIL_ROOT
10
0.190833
20
-0.498530
30
0.0
0
VERTEX
8
AIRFOIL_ROOT
10
0.192900
20
-0.498806
30
0.0
0
VERTEX
8
AIRFOIL_ROOT
10
0.194704
20
-0.499050
30
0.0
0
VERTEX
8
AIRFOIL_ROOT
10
0.196239
20
-0.499260
30
0.0
0
VERTEX
8
AIRFOIL_ROOT
10
0.197501
20
-0.499434
30
0.0
0
VERTEX
8
AIRFOIL_ROOT
10
0.198487
20
-0.499571
30
0.0
0
VERTEX
8
AIRFOIL_ROOT
10
0.199192
20
-0.499669
30
0.0
0
VERTEX
8
AIRFOIL_ROOT
10
0.199617
20
-0.499728
30
0.0
0
VERTEX
8
AIRFOIL_ROOT
10
0.199758
20
-0.499748
30
0.0
0
VERTEX
8
AIRFOIL_ROOT
10
0.199758
20
-0.500252
30
0.0
0
VERTEX
8
AIRFOIL_ROOT
10
0.199617
20
-0.500272
30
0.0
0
VERTEX
8
AIRFOIL_ROOT
10
0.199192
20
-0.500331
30
0.0
0
VERTEX
8
AIRFOIL_ROOT
10
0.198487
20
-0.500429
30
0.0
0
VERTEX
8
AIRFOIL_ROOT
10
0.197501
20
-0.500566
30
0.0
0
VERTEX
8
AIRFOIL_ROOT
10
0.196239
20
-0.500740
30
0.0
0
VERTEX
8
AIRFOIL_ROOT
10
0.194704
20
-0.500950
30
0.0
0
VERTEX
8
AIRFOIL_ROOT
10
0.192900
20
-0.501194
30
0.0
0
VERTEX
8
AIRFOIL_ROOT
10
0.190833
20
-0.501470
30
0.0
0
VERTEX
8
AIRFOIL_ROOT
10
0.188507
20
-0.501777
30
0.0
0
VERTEX
8
AIRFOIL_ROOT
10
0.185930
20
-0.502113
30
0.0
0
VERTEX
8
AIRFOIL_ROOT
10
0.183110
20
-0.502474
30
0.0
0
VERTEX
8
AIRFOIL_ROOT
10
0.180053
20
-0.502858
30
0.0
0
VERTEX
8
AIRFOIL_ROOT
10
0.176769
20
-0.503264
30
0.0
0
VERTEX
8
AIRFOIL_ROOT
10
0.173268
20
-0.503688
30
0.0
0
VERTEX
8
AIRFOIL_ROOT
10
0.169558
20
-0.504128
30
0.0
0
VERTEX
8
AIRFOIL_ROOT
10
0.165651
20
-0.504581
30
0.0
0
VERTEX
8
AIRFOIL_ROOT
10
0.161557
20
-0.505045
30
0.0
0
VERTEX
8
AIRFOIL_ROOT
10
0.157288
20
-0.505517
30
0.0
0
VERTEX
8
AIRFOIL_ROOT
10
0.152857
20
-0.505994
30
0.0
0
VERTEX
8
AIRFOIL_ROOT
10
0.148276
20
-0.506473
30
0.0
0
VERTEX
8
AIRFOIL_ROOT
10
0.143557
20
-0.506952
30
0.0
0
VERTEX
8
AIRFOIL_ROOT
10
0.138715
20
-0.507427
30
0.0
0
VERTEX
8
AIRFOIL_ROOT
10
0.133762
20
-0.507896
30
0.0
0
VERTEX
8
AIRFOIL_ROOT
10
0.128713
20
-0.508356
30
0.0
0
VERTEX
8
AIRFOIL_ROOT
10
0.123583
20
-0.508804
30
0.0
0
VERTEX
8
AIRFOIL_ROOT
10
0.118386
20
-0.509236
30
0.0
0
VERTEX
8
AIRFOIL_ROOT
10
0.113136
20
-0.509648
30
0.0
0
VERTEX
8
AIRFOIL_ROOT
10
0.107848
20
-0.510039
30
0.0
0
VERTEX
8
AIRFOIL_ROOT
10
0.102538
20
-0.510404
30
0.0
0
VERTEX
8
AIRFOIL_ROOT
10
0.097220
20
-0.510739
30
0.0
0
VERTEX
8
AIRFOIL_ROOT
10
0.091910
20
-0.511042
30
0.0
0
VERTEX
8
AIRFOIL_ROOT
10
0.086623
20
-0.511309
30
0.0
0
VERTEX
8
AIRFOIL_ROOT
10
0.081373
20
-0.511536
30
0.0
0
VERTEX
8
AIRFOIL_ROOT
10
0.076175
20
-0.511720
30
0.0
0
VERTEX
8
AIRFOIL_ROOT
10
0.071045
20
-0.511859
30
0.0
0
VERTEX
8
AIRFOIL_ROOT
10
0.065996
20
-0.511949
30
0.0
0
VERTEX
8
AIRFOIL_ROOT
10
0.061044
20
-0.511987
30
0.0
0
VERTEX
8
AIRFOIL_ROOT
10
0.056201
20
-0.511973
30
0.0
0
VERTEX
8
AIRFOIL_ROOT
10
0.051483
20
-0.511904
30
0.0
0
VERTEX
8
AIRFOIL_ROOT
10
0.046901
20
-0.511778
30
0.0
0
VERTEX
8
AIRFOIL_ROOT
10
0.042470
20
-0.511595
30
0.0
0
VERTEX
8
AIRFOIL_ROOT
10
0.038201
20
-0.511354
30
0.0
0
VERTEX
8
AIRFOIL_ROOT
10
0.034108
20
-0.511056
30
0.0
0
VERTEX
8
AIRFOIL_ROOT
10
0.030200
20
-0.510701
30
0.0
0
VERTEX
8
AIRFOIL_ROOT
10
0.026491
20
-0.510291
30
0.0
0
VERTEX
8
AIRFOIL_ROOT
10
0.022989
20
-0.509826
30
0.0
0
VERTEX
8
AIRFOIL_ROOT
10
0.019705
20
-0.509308
30
0.0
0
VERTEX
8
AIRFOIL_ROOT
10
0.016648
20
-0.508741
30
0.0
0
VERTEX
8
AIRFOIL_ROOT
10
0.013828
20
-0.508126
30
0.0
0
VERTEX
8
AIRFOIL_ROOT
10
0.011251
20
-0.507467
30
0.0
0
VERTEX
8
AIRFOIL_ROOT
10
0.008926
20
-0.506766
30
0.0
0
VERTEX
8
AIRFOIL_ROOT
10
0.006858
20
-0.506027
30
0.0
0
VERTEX
8
AIRFOIL_ROOT
10
0.005054
20
-0.505252
30
0.0
0
VERTEX
8
AIRFOIL_ROOT
10
0.003519
20
-0.504444
30
0.0
0
VERTEX
8
AIRFOIL_ROOT
10
0.002257
20
-0.503606
30
0.0
0
VERTEX
8
AIRFOIL_ROOT
10
0.001272
20
-0.502741
30
0.0
0
VERTEX
8
AIRFOIL_ROOT
10
0.000566
20
-0.501851
30
0.0
0
VERTEX
8
AIRFOIL_ROOT
10
0.000142
20
-0.500937
30
0.0
0
VERTEX
8
AIRFOIL_ROOT
10
0.000000
20
-0.500000
30
0.0
0
SEQEND
8
AIRFOIL_ROOT
0
CIRCLE
8
CG_NP
10
0.466992
20
0.000000
30
0.0
40
0.010000
0
CIRCLE
8
CG_NP
10
0.483306
20
0.000000
30
0.0
40
0.010000
0
ENDSEC
0
EOF
