0
SECTION
2
HEADER
9
$ACADVER
1
AC1009
0
ENDSEC
0
SECTION
2
TABLES
0
TABLE
2
LAYER
70
6
0
LAYER
2
0
70
0
62
7
6
CONTINUOUS
0
LAYER
2
WING_MAIN
70
0
62
3
6
CONTINUOUS
0
LAYER
2
H_TAIL
70
0
62
3
6
CONTINUOUS
0
LAYER
2
V_TAIL
70
0
62
3
6
CONTINUOUS
0
LAYER
2
AIRFOIL_ROOT
70
0
62
5
6
CONTINUOUS
0
LAYER
2
CG_NP
70
0
62
1
6
CONTINUOUS
0
ENDTAB
0
ENDSEC
0
SECTION
2
ENTITIES
0
POLYLINE
8
WING_MAIN
66
1
70
1
0
VERTEX
8
WING_MAIN
10
0.224179
20
0.000000
30
0.0
0
VERTEX
8
WING_MAIN
10
0.224179
20
0.679330
30
0.0
0
VERTEX
8
WING_MAIN
10
0.351553
20
0.679330
30
0.0
0
VERTEX
8
WING_MAIN
10
0.436470
20
0.000000
30
0.0
0
VERTEX
8
WING_MAIN
10
0.351553
20
-0.679330
30
0.0
0
VERTEX
8
WING_MAIN
10
0.224179
20
-0.679330
30
0.0
0
VERTEX
8
WING_MAIN
10
0.224179
20
0.000000
30
0.0
0
SEQEND
8
WING_MAIN
0
POLYLINE
8
H_TAIL
66
1
70
1
0
VERTEX
8
H_TAIL
10
0.835576
20
0.000000
30
0.0
0
VERTEX
8
H_TAIL
10
0.835576
20
0.191846
30
0.0
0
VERTEX
8
H_TAIL
10
0.903788
20
0.191846
30
0.0
0
VERTEX
8
H_TAIL
10
0.920841
20
0.000000
30
0.0
0
VERTEX
8
H_TAIL
10
0.903788
20
-0.191846
30
0.0
0
VERTEX
8
H_TAIL
10
0.835576
20
-0.191846
30
0.0
0
VERTEX
8
H_TAIL
10
0.835576
20
0.000000
30
0.0
0
SEQEND
8
H_TAIL
0
POLYLINE
8
V_TAIL
66
1
70
1
0
VERTEX
8
V_TAIL
10
0.815576
20
0.000000
30
0.0
0
VERTEX
8
V_TAIL
10
0.961419
20
0.000000
30
0.0
0
VERTEX
8
V_TAIL
10
0.965007
20
0.164074
30
0.0
0
VERTEX
8
V_TAIL
10
0.892085
20
0.164074
30
0.0
0
VERTEX
8
V_TAIL
10
0.815576
20
0.000000
30
0.0
0
SEQEND
8
V_TAIL
0
POLYLINE
8
AIRFOIL_ROOT
66
1
70
1
0
VERTEX
8
AIRFOIL_ROOT
10
0.000000
20
-0.500000
30
0.0
0
VERTEX
8
AIRFOIL_ROOT
10
0.000150
20
-0.498995
30
0.0
0
VERTEX
8
AIRFOIL_ROOT
10
0.000601
20
-0.497983
30
0.0
0
VERTEX
8
AIRFOIL_ROOT
10
0.001351
20
-0.496967
30
0.0
0
VERTEX
8
AIRFOIL_ROOT
10
0.002399
20
-0.495949
30
0.0
0
VERTEX
8
AIRFOIL_ROOT
10
0.003740
20
-0.494933
30
0.0
0
VERTEX
8
AIRFOIL_ROOT
10
0.005371
20
-0.493923
30
0.0
0
VERTEX
8
AIRFOIL_ROOT
10
0.007288
20
-0.492924
30
0.0
0
VERTEX
8
AIRFOIL_ROOT
10
0.009486
20
-0.491942
30
0.0
0
VERTEX
8
AIRFOIL_ROOT
10
0.011957
20
-0.490982
30
0.0
0
VERTEX
8
AIRFOIL_ROOT
10
0.014695
20
-0.490051
30
0.0
0
VERTEX
8
AIRFOIL_ROOT
10
0.017693
20
-0.489155
30
0.0
0
VERTEX
8
AIRFOIL_ROOT
10
0.020941
20
-0.488300
30
0.0
0
VERTEX
8
AIRFOIL_ROOT
10
0.024431
20
-0.487493
30
0.0
0
VERTEX
8
AIRFOIL_ROOT
10
0.028152
20
-0.486740
30
0.0
0
VERTEX
8
AIRFOIL_ROOT
10
0.032095
20
-0.486046
30
0.0
0
VERTEX
8
AIRFOIL_ROOT
10
0.036247
20
-0.485418
30
0.0
0
VERTEX
8
AIRFOIL_ROOT
10
0.040598
20
-0.484860
30
0.0
0
VERTEX
8
AIRFOIL_ROOT
10
0.045134
20
-0.484377
30
0.0
0
VERTEX
8
AIRFOIL_ROOT
10
0.049844
20
-0.483972
30
0.0
0
VERTEX
8
AIRFOIL_ROOT
10
0.054713
20
-0.483649
30
0.0
0
VERTEX
8
AIRFOIL_ROOT
10
0.059727
20
-0.483409
30
0.0
0
VERTEX
8
AIRFOIL_ROOT
10
0.064873
20
-0.483255
30
0.0
0
VERTEX
8
AIRFOIL_ROOT
10
0.070137
20
-0.483187
30
0.0
0
VERTEX
8
AIRFOIL_ROOT
10
0.075502
20
-0.483205
30
0.0
0
VERTEX
8
AIRFOIL_ROOT
10
0.080954
20
-0.483308
30
0.0
0
VERTEX
8
AIRFOIL_ROOT
10
0.086478
20
-0.483495
30
0.0
0
VERTEX
8
AIRFOIL_ROOT
10
0.092057
20
-0.483750
30
0.0
0
VERTEX
8
AIRFOIL_ROOT
10
0.097676
20
-0.484062
30
0.0
0
VERTEX
8
AIRFOIL_ROOT
10
0.103320
20
-0.484430
30
0.0
0
VERTEX
8
AIRFOIL_ROOT
10
0.108971
20
-0.484850
30
0.0
0
VERTEX
8
AIRFOIL_ROOT
10
0.114614
20
-0.485318
30
0.0
0
VERTEX
8
AIRFOIL_ROOT
10
0.120234
20
-0.485829
30
0.0
0
VERTEX
8
AIRFOIL_ROOT
10
0.125813
20
-0.486379
30
0.0
0
VERTEX
8
AIRFOIL_ROOT
10
0.131336
20
-0.486965
30
0.0
0
VERTEX
8
AIRFOIL_ROOT
10
0.136789
20
-0.487581
30
0.0
0
VERTEX
8
AIRFOIL_ROOT
10
0.142154
20
-0.488224
30
0.0
0
VERTEX
8
AIRFOIL_ROOT
10
0.147417
20
-0.488888
30
0.0
0
VERTEX
8
AIRFOIL_ROOT
10
0.152563
20
-0.489569
30
0.0
0
VERTEX
8
AIRFOIL_ROOT
10
0.157578
20
-0.490262
30
0.0
0
VERTEX
8
AIRFOIL_ROOT
10
0.162447
20
-0.490963
30
0.0
0
VERTEX
8
AIRFOIL_ROOT
10
0.167156
20
-0.491667
30
0.0
0
VERTEX
8
AIRFOIL_ROOT
10
0.171693
20
-0.492369
30
0.0
0
VERTEX
8
AIRFOIL_ROOT
10
0.176043
20
-0.493064
30
0.0
0
VERTEX
8
AIRFOIL_ROOT
10
0.180196
20
-0.493748
30
0.0
0
VERTEX
8
AIRFOIL_ROOT
10
0.184138
20
-0.494417
30
0.0
0
VERTEX
8
AIRFOIL_ROOT
10
0.187860
20
-0.495064
30
0.0
0
VERTEX
8
AIRFOIL_ROOT
10
0.191349
20
-0.495686
30
0.0
0
VERTEX
8
AIRFOIL_ROOT
10
0.194598
20
-0.496278
30
0.0
0
VERTEX
8
AIRFOIL_ROOT
10
0.197595
20
-0.496836
30
0.0
0
VERTEX
8
AIRFOIL_ROOT
10
0.200334
20
-0.497355
30
0.0
0
VERTEX
8
AIRFOIL_ROOT
10
0.202805
20
-0.497831
30
0.0
0
VERTEX
8
AIRFOIL_ROOT
10
0.205002
20
-0.498262
30
0.0
0
VERTEX
8
AIRFOIL_ROOT
10
0.206919
20
-0.498642
30
0.0
0
VERTEX
8
AIRFOIL_ROOT
10
0.208551
20
-0.498969
30
0.0
0
VERTEX
8
AIRFOIL_ROOT
10
0.209892
20
-0.499241
30
0.0
0
VERTEX
8
AIRFOIL_ROOT
10
0.210939
20
-0.499455
30
0.0
0
VERTEX
8
AIRFOIL_ROOT
10
0.211689
20
-0.499609
30
0.0
0
VERTEX
8
AIRFOIL_ROOT
10
0.212140
20
-0.499702
30
0.0
0
VERTEX
8
AIRFOIL_ROOT
10
0.212291
20
-0.499733
30
0.0
0
VERTEX
8
AIRFOIL_ROOT
10
0.212291
20
-0.500267
30
0.0
0
VERTEX
8
AIRFOIL_ROOT
10
0.212140
20
-0.500278
30
0.0
0
VERTEX
8
AIRFOIL_ROOT
10
0.211689
20
-0.500311
30
0.0
0
VERTEX
8
AIRFOIL_ROOT
10
0.210939
20
-0.500366
30
0.0
0
VERTEX
8
AIRFOIL_ROOT
10
0.209892
20
-0.500442
30
0.0
0
VERTEX
8
AIRFOIL_ROOT
10
0.208551
20
-0.500539
30
0.0
0
VERTEX
8
AIRFOIL_ROOT
10
0.206919
20
-0.500657
30
0.0
0
VERTEX
8
AIRFOIL_ROOT
10
0.205002
20
-0.500794
30
0.0
0
VERTEX
8
AIRFOIL_ROOT
10
0.202805
20
-0.500951
30
0.0
0
VERTEX
8
AIRFOIL_ROOT
10
0.200334
20
-0.501126
30
0.0
0
VERTEX
8
AIRFOIL_ROOT
10
0.197595
20
-0.501318
30
0.0
0
VERTEX
8
AIRFOIL_ROOT
10
0.194598
20
-0.501527
30
0.0
0
VERTEX
8
AIRFOIL_ROOT
10
0.191349
20
-0.501751
30
0.0
0
VERTEX
8
AIRFOIL_ROOT
10
0.187860
20
-0.501991
30
0.0
0
VERTEX
8
AIRFOIL_ROOT
10
0.184138
20
-0.502245
30
0.0
0
VERTEX
8
AIRFOIL_ROOT
10
0.180196
20
-0.502511
30
0.0
0
VERTEX
8
AIRFOIL_ROOT
10
0.176043
20
-0.502790
30
0.0
0
VERTEX
8
AIRFOIL_ROOT
10
0.171693
20
-0.503081
30
0.0
0
VERTEX
8
AIRFOIL_ROOT
10
0.167156
20
-0.503382
30
0.0
0
VERTEX
8
AIRFOIL_ROOT
10
0.162447
20
-0.503692
30
0.0
0
VERTEX
8
AIRFOIL_ROOT
10
0.157578
20
-0.504010
30
0.0
0
VERTEX
8
AIRFOIL_ROOT
10
0.152563
20
-0.504335
30
0.0
0
VERTEX
8
AIRFOIL_ROOT
10
0.147417
20
-0.504665
30
0.0
0
VERTEX
8
AIRFOIL_ROOT
10
0.142154
20
-0.505000
30
0.0
0
VERTEX
8
AIRFOIL_ROOT
10
0.136789
20
-0.505336
30
0.0
0
VERTEX
8
AIRFOIL_ROOT
10
0.131336
20
-0.505671
30
0.0
0
VERTEX
8
AIRFOIL_ROOT
10
0.125813
20
-0.506005
30
0.0
0
VERTEX
8
AIRFOIL_ROOT
10
0.120234
20
-0.506333
30
0.0
0
VERTEX
8
AIRFOIL_ROOT
10
0.114614
20
-0.506652
30
0.0
0
VERTEX
8
AIRFOIL_ROOT
10
0.108971
20
-0.506961
30
0.0
0
VERTEX
8
AIRFOIL_ROOT
10
0.103320
20
-0.507255
30
0.0
0
VERTEX
8
AIRFOIL_ROOT
10
0.097676
20
-0.507531
30
0.0
0
VERTEX
8
AIRFOIL_ROOT
10
0.092057
20
-0.507785
30
0.0
0
VERTEX
8
AIRFOIL_ROOT
10
0.086478
20
-0.508014
30
0.0
0
VERTEX
8
AIRFOIL_ROOT
10
0.080954
20
-0.508219
30
0.0
0
VERTEX
8
AIRFOIL_ROOT
10
0.075502
20
-0.508408
30
0.0
0
VERTEX
8
AIRFOIL_ROOT
10
0.070137
20
-0.508579
30
0.0
0
VERTEX
8
AIRFOIL_ROOT
10
0.064873
20
-0.508727
30
0.0
0
VERTEX
8
AIRFOIL_ROOT
10
0.059727
20
-0.508846
30
0.0
0
VERTEX
8
AIRFOIL_ROOT
10
0.054713
20
-0.508934
30
0.0
0
VERTEX
8
AIRFOIL_ROOT
10
0.049844
20
-0.508985
30
0.0
0
VERTEX
8
AIRFOIL_ROOT
10
0.045134
20
-0.508995
30
0.0
0
VERTEX
8
AIRFOIL_ROOT
10
0.040598
20
-0.508961
30
0.0
0
VERTEX
8
AIRFOIL_ROOT
10
0.036247
20
-0.508880
30
0.0
0
VERTEX
8
AIRFOIL_ROOT
10
0.032095
20
-0.508748
30
0.0
0
VERTEX
8
AIRFOIL_ROOT
10
0.028152
20
-0.508563
30
0.0
0
VERTEX
8
AIRFOIL_ROOT
10
0.024431
20
-0.508324
30
0.0
0
VERTEX
8
AIRFOIL_ROOT
10
0.020941
20
-0.508028
30
0.0
0
VERTEX
8
AIRFOIL_ROOT
10
0.017693
20
-0.507675
30
0.0
0
VERTEX
8
AIRFOIL_ROOT
10
0.014695
20
-0.507264
30
0.0
0
VERTEX
8
AIRFOIL_ROOT
10
0.011957
20
-0.506795
30
0.0
0
VERTEX
8
AIRFOIL_ROOT
10
0.009486
20
-0.506267
30
0.0
0
VERTEX
8
AIRFOIL_ROOT
10
0.007288
20
-0.505681
30
0.0
0
VERTEX
8
AIRFOIL_ROOT
10
0.005371
20
-0.505037
30
0.0
0
VERTEX
8
AIRFOIL_ROOT
10
0.003740
20
-0.504336
30
0.0
0
VERTEX
8
AIRFOIL_ROOT
10
0.002399
20
-0.503578
30
0.0
0
VERTEX
8
AIRFOIL_ROOT
10
0.001351
20
-0.502765
30
0.0
0
VERTEX
8
AIRFOIL_ROOT
10
0.000601
20
-0.501897
30
0.0
0
VERTEX
8
AIRFOIL_ROOT
10
0.000150
20
-0.500975
30
0.0
0
VERTEX
8
AIRFOIL_ROOT
10
0.000000
20
-0.500000
30
0.0
0
SEQEND
8
AIRFOIL_ROOT
0
CIRCLE
8
CG_NP
10
0.481762
20
0.000000
30
0.0
40
0.010000
0
CIRCLE
8
CG_NP
10
0.499099
20
0.000000
30
0.0
40
0.010000
0
ENDSEC
0
EOF
