0
SECTION
2
HEADER
9
$ACADVER
1
AC1009
0
ENDSEC
0
SECTION
2
TABLES
0
TABLE
2
LAYER
70
6
0
LAYER
2
0
70
0
62
7
6
CONTINUOUS
0
LAYER
2
WING_MAIN
70
0
62
3
6
CONTINUOUS
0
LAYER
2
H_TAIL
70
0
62
3
6
CONTINUOUS
0
LAYER
2
V_TAIL
70
0
62
3
6
CONTINUOUS
0
LAYER
2
AIRFOIL_ROOT
70
0
62
5
6
CONTINUOUS
0
LAYER
2
CG_NP
70
0
62
1
6
CONTINUOUS
0
ENDTAB
0
ENDSEC
0
SECTION
2
ENTITIES
0
POLYLINE
8
WING_MAIN
66
1
70
1
0
VERTEX
8
WING_MAIN
10
0.229648
20
0.000000
30
0.0
0
VERTEX
8
WING_MAIN
10
0.229648
20
0.695902
30
0.0
0
VERTEX
8
WING_MAIN
10
0.360129
20
0.695902
30
0.0
0
VERTEX
8
WING_MAIN
10
0.447117
20
0.000000
30
0.0
0
VERTEX
8
WING_MAIN
10
0.360129
20
-0.695902
30
0.0
0
VERTEX
8
WING_MAIN
10
0.229648
20
-0.695902
30
0.0
0
VERTEX
8
WING_MAIN
10
0.229648
20
0.000000
30
0.0
0
SEQEND
8
WING_MAIN
0
POLYLINE
8
H_TAIL
66
1
70
1
0
VERTEX
8
H_TAIL
10
0.855959
20
0.000000
30
0.0
0
VERTEX
8
H_TAIL
10
0.855959
20
0.196526
30
0.0
0
VERTEX
8
H_TAIL
10
0.925835
20
0.196526
30
0.0
0
VERTEX
8
H_TAIL
10
0.943304
20
0.000000
30
0.0
0
VERTEX
8
H_TAIL
10
0.925835
20
-0.196526
30
0.0
0
VERTEX
8
H_TAIL
10
0.855959
20
-0.196526
30
0.0
0
VERTEX
8
H_TAIL
10
0.855959
20
0.000000
30
0.0
0
SEQEND
8
H_TAIL
0
POLYLINE
8
V_TAIL
66
1
70
1
0
VERTEX
8
V_TAIL
10
0.835959
20
0.000000
30
0.0
0
VERTEX
8
V_TAIL
10
0.985360
20
0.000000
30
0.0
0
VERTEX
8
V_TAIL
10
0.989035
20
0.168076
30
0.0
0
VERTEX
8
V_TAIL
10
0.914334
20
0.168076
30
0.0
0
VERTEX
8
V_TAIL
10
0.835959
20
0.000000
30
0.0
0
SEQEND
8
V_TAIL
0
POLYLINE
8
AIRFOIL_ROOT
66
1
70
1
0
VERTEX
8
AIRFOIL_ROOT
10
0.000000
20
-0.500000
30
0.0
0
VERTEX
8
AIRFOIL_ROOT
10
0.000154
20
-0.498969
30
0.0
0
VERTEX
8
AIRFOIL_ROOT
10
0.000616
20
-0.497901
30
0.0
0
VERTEX
8
AIRFOIL_ROOT
10
0.001384
20
-0.496797
30
0.0
0
VERTEX
8
AIRFOIL_ROOT
10
0.002457
20
-0.495661
30
0.0
0
VERTEX
8
AIRFOIL_ROOT
10
0.003831
20
-0.494499
30
0.0
0
VERTEX
8
AIRFOIL_ROOT
10
0.005502
20
-0.493315
30
0.0
0
VERTEX
8
AIRFOIL_ROOT
10
0.007466
20
-0.492117
30
0.0
0
VERTEX
8
AIRFOIL_ROOT
10
0.009717
20
-0.490913
30
0.0
0
VERTEX
8
AIRFOIL_ROOT
10
0.012249
20
-0.489711
30
0.0
0
VERTEX
8
AIRFOIL_ROOT
10
0.015054
20
-0.488522
30
0.0
0
VERTEX
8
AIRFOIL_ROOT
10
0.018125
20
-0.487354
30
0.0
0
VERTEX
8
AIRFOIL_ROOT
10
0.021452
20
-0.486218
30
0.0
0
VERTEX
8
AIRFOIL_ROOT
10
0.025027
20
-0.485125
30
0.0
0
VERTEX
8
AIRFOIL_ROOT
10
0.028839
20
-0.484084
30
0.0
0
VERTEX
8
AIRFOIL_ROOT
10
0.032878
20
-0.483106
30
0.0
0
VERTEX
8
AIRFOIL_ROOT
10
0.037132
20
-0.482200
30
0.0
0
VERTEX
8
AIRFOIL_ROOT
10
0.041588
20
-0.481376
30
0.0
0
VERTEX
8
AIRFOIL_ROOT
10
0.046235
20
-0.480642
30
0.0
0
VERTEX
8
AIRFOIL_ROOT
10
0.051060
20
-0.480006
30
0.0
0
VERTEX
8
AIRFOIL_ROOT
10
0.056047
20
-0.479475
30
0.0
0
VERTEX
8
AIRFOIL_ROOT
10
0.061184
20
-0.479055
30
0.0
0
VERTEX
8
AIRFOIL_ROOT
10
0.066456
20
-0.478750
30
0.0
0
VERTEX
8
AIRFOIL_ROOT
10
0.071848
20
-0.478565
30
0.0
0
VERTEX
8
AIRFOIL_ROOT
10
0.077344
20
-0.478501
30
0.0
0
VERTEX
8
AIRFOIL_ROOT
10
0.082929
20
-0.478562
30
0.0
0
VERTEX
8
AIRFOIL_ROOT
10
0.088587
20
-0.478744
30
0.0
0
VERTEX
8
AIRFOIL_ROOT
10
0.094303
20
-0.479018
30
0.0
0
VERTEX
8
AIRFOIL_ROOT
10
0.100059
20
-0.479369
30
0.0
0
VERTEX
8
AIRFOIL_ROOT
10
0.105840
20
-0.479794
30
0.0
0
VERTEX
8
AIRFOIL_ROOT
10
0.111629
20
-0.480289
30
0.0
0
VERTEX
8
AIRFOIL_ROOT
10
0.117410
20
-0.480850
30
0.0
0
VERTEX
8
AIRFOIL_ROOT
10
0.123166
20
-0.481473
30
0.0
0
VERTEX
8
AIRFOIL_ROOT
10
0.128882
20
-0.482153
30
0.0
0
VERTEX
8
AIRFOIL_ROOT
10
0.134540
20
-0.482884
30
0.0
0
VERTEX
8
AIRFOIL_ROOT
10
0.140125
20
-0.483660
30
0.0
0
VERTEX
8
AIRFOIL_ROOT
10
0.145622
20
-0.484477
30
0.0
0
VERTEX
8
AIRFOIL_ROOT
10
0.151013
20
-0.485327
30
0.0
0
VERTEX
8
AIRFOIL_ROOT
10
0.156285
20
-0.486206
30
0.0
0
VERTEX
8
AIRFOIL_ROOT
10
0.161422
20
-0.487106
30
0.0
0
VERTEX
8
AIRFOIL_ROOT
10
0.166410
20
-0.488021
30
0.0
0
VERTEX
8
AIRFOIL_ROOT
10
0.171234
20
-0.488944
30
0.0
0
VERTEX
8
AIRFOIL_ROOT
10
0.175881
20
-0.489869
30
0.0
0
VERTEX
8
AIRFOIL_ROOT
10
0.180338
20
-0.490789
30
0.0
0
VERTEX
8
AIRFOIL_ROOT
10
0.184591
20
-0.491697
30
0.0
0
VERTEX
8
AIRFOIL_ROOT
10
0.188630
20
-0.492586
30
0.0
0
VERTEX
8
AIRFOIL_ROOT
10
0.192442
20
-0.493450
30
0.0
0
VERTEX
8
AIRFOIL_ROOT
10
0.196017
20
-0.494282
30
0.0
0
VERTEX
8
AIRFOIL_ROOT
10
0.199345
20
-0.495076
30
0.0
0
VERTEX
8
AIRFOIL_ROOT
10
0.202415
20
-0.495825
30
0.0
0
VERTEX
8
AIRFOIL_ROOT
10
0.205221
20
-0.496523
30
0.0
0
VERTEX
8
AIRFOIL_ROOT
10
0.207752
20
-0.497164
30
0.0
0
VERTEX
8
AIRFOIL_ROOT
10
0.210003
20
-0.497743
30
0.0
0
VERTEX
8
AIRFOIL_ROOT
10
0.211967
20
-0.498256
30
0.0
0
VERTEX
8
AIRFOIL_ROOT
10
0.213638
20
-0.498698
30
0.0
0
VERTEX
8
AIRFOIL_ROOT
10
0.215012
20
-0.499064
30
0.0
0
VERTEX
8
AIRFOIL_ROOT
10
0.216085
20
-0.499353
30
0.0
0
VERTEX
8
AIRFOIL_ROOT
10
0.216853
20
-0.499561
30
0.0
0
VERTEX
8
AIRFOIL_ROOT
10
0.217315
20
-0.499686
30
0.0
0
VERTEX
8
AIRFOIL_ROOT
10
0.217469
20
-0.499728
30
0.0
0
VERTEX
8
AIRFOIL_ROOT
10
0.217469
20
-0.500272
30
0.0
0
VERTEX
8
AIRFOIL_ROOT
10
0.217315
20
-0.500273
30
0.0
0
VERTEX
8
AIRFOIL_ROOT
10
0.216853
20
-0.500275
30
0.0
0
VERTEX
8
AIRFOIL_ROOT
10
0.216085
20
-0.500280
30
0.0
0
VERTEX
8
AIRFOIL_ROOT
10
0.215012
20
-0.500287
30
0.0
0
VERTEX
8
AIRFOIL_ROOT
10
0.213638
20
-0.500296
30
0.0
0
VERTEX
8
AIRFOIL_ROOT
10
0.211967
20
-0.500308
30
0.0
0
VERTEX
8
AIRFOIL_ROOT
10
0.210003
20
-0.500323
30
0.0
0
VERTEX
8
AIRFOIL_ROOT
10
0.207752
20
-0.500341
30
0.0
0
VERTEX
8
AIRFOIL_ROOT
10
0.205221
20
-0.500364
30
0.0
0
VERTEX
8
AIRFOIL_ROOT
10
0.202415
20
-0.500393
30
0.0
0
VERTEX
8
AIRFOIL_ROOT
10
0.199345
20
-0.500427
30
0.0
0
VERTEX
8
AIRFOIL_ROOT
10
0.196017
20
-0.500467
30
0.0
0
VERTEX
8
AIRFOIL_ROOT
10
0.192442
20
-0.500516
30
0.0
0
VERTEX
8
AIRFOIL_ROOT
10
0.188630
20
-0.500573
30
0.0
0
VERTEX
8
AIRFOIL_ROOT
10
0.184591
20
-0.500640
30
0.0
0
VERTEX
8
AIRFOIL_ROOT
10
0.180338
20
-0.500718
30
0.0
0
VERTEX
8
AIRFOIL_ROOT
10
0.175881
20
-0.500808
30
0.0
0
VERTEX
8
AIRFOIL_ROOT
10
0.171234
20
-0.500911
30
0.0
0
VERTEX
8
AIRFOIL_ROOT
10
0.166410
20
-0.501028
30
0.0
0
VERTEX
8
AIRFOIL_ROOT
10
0.161422
20
-0.501158
30
0.0
0
VERTEX
8
AIRFOIL_ROOT
10
0.156285
20
-0.501304
30
0.0
0
VERTEX
8
AIRFOIL_ROOT
10
0.151013
20
-0.501464
30
0.0
0
VERTEX
8
AIRFOIL_ROOT
10
0.145622
20
-0.501639
30
0.0
0
VERTEX
8
AIRFOIL_ROOT
10
0.140125
20
-0.501828
30
0.0
0
VERTEX
8
AIRFOIL_ROOT
10
0.134540
20
-0.502030
30
0.0
0
VERTEX
8
AIRFOIL_ROOT
10
0.128882
20
-0.502243
30
0.0
0
VERTEX
8
AIRFOIL_ROOT
10
0.123166
20
-0.502467
30
0.0
0
VERTEX
8
AIRFOIL_ROOT
10
0.117410
20
-0.502698
30
0.0
0
VERTEX
8
AIRFOIL_ROOT
10
0.111629
20
-0.502934
30
0.0
0
VERTEX
8
AIRFOIL_ROOT
10
0.105840
20
-0.503172
30
0.0
0
VERTEX
8
AIRFOIL_ROOT
10
0.100059
20
-0.503408
30
0.0
0
VERTEX
8
AIRFOIL_ROOT
10
0.094303
20
-0.503639
30
0.0
0
VERTEX
8
AIRFOIL_ROOT
10
0.088587
20
-0.503861
30
0.0
0
VERTEX
8
AIRFOIL_ROOT
10
0.082929
20
-0.504079
30
0.0
0
VERTEX
8
AIRFOIL_ROOT
10
0.077344
20
-0.504315
30
0.0
0
VERTEX
8
AIRFOIL_ROOT
10
0.071848
20
-0.504565
30
0.0
0
VERTEX
8
AIRFOIL_ROOT
10
0.066456
20
-0.504822
30
0.0
0
VERTEX
8
AIRFOIL_ROOT
10
0.061184
20
-0.505078
30
0.0
0
VERTEX
8
AIRFOIL_ROOT
10
0.056047
20
-0.505328
30
0.0
0
VERTEX
8
AIRFOIL_ROOT
10
0.051060
20
-0.505564
30
0.0
0
VERTEX
8
AIRFOIL_ROOT
10
0.046235
20
-0.505778
30
0.0
0
VERTEX
8
AIRFOIL_ROOT
10
0.041588
20
-0.505965
30
0.0
0
VERTEX
8
AIRFOIL_ROOT
10
0.037132
20
-0.506117
30
0.0
0
VERTEX
8
AIRFOIL_ROOT
10
0.032878
20
-0.506228
30
0.0
0
VERTEX
8
AIRFOIL_ROOT
10
0.028839
20
-0.506292
30
0.0
0
VERTEX
8
AIRFOIL_ROOT
10
0.025027
20
-0.506304
30
0.0
0
VERTEX
8
AIRFOIL_ROOT
10
0.021452
20
-0.506259
30
0.0
0
VERTEX
8
AIRFOIL_ROOT
10
0.018125
20
-0.506152
30
0.0
0
VERTEX
8
AIRFOIL_ROOT
10
0.015054
20
-0.505978
30
0.0
0
VERTEX
8
AIRFOIL_ROOT
10
0.012249
20
-0.505734
30
0.0
0
VERTEX
8
AIRFOIL_ROOT
10
0.009717
20
-0.505418
30
0.0
0
VERTEX
8
AIRFOIL_ROOT
10
0.007466
20
-0.505025
30
0.0
0
VERTEX
8
AIRFOIL_ROOT
10
0.005502
20
-0.504554
30
0.0
0
VERTEX
8
AIRFOIL_ROOT
10
0.003831
20
-0.504003
30
0.0
0
VERTEX
8
AIRFOIL_ROOT
10
0.002457
20
-0.503370
30
0.0
0
VERTEX
8
AIRFOIL_ROOT
10
0.001384
20
-0.502654
30
0.0
0
VERTEX
8
AIRFOIL_ROOT
10
0.000616
20
-0.501854
30
0.0
0
VERTEX
8
AIRFOIL_ROOT
10
0.000154
20
-0.500969
30
0.0
0
VERTEX
8
AIRFOIL_ROOT
10
0.000000
20
-0.500000
30
0.0
0
SEQEND
8
AIRFOIL_ROOT
0
CIRCLE
8
CG_NP
10
0.487865
20
0.000000
30
0.0
40
0.010000
0
CIRCLE
8
CG_NP
10
0.505625
20
0.000000
30
0.0
40
0.010000
0
ENDSEC
0
EOF
