0
SECTION
2
HEADER
9
$ACADVER
1
AC1009
0
ENDSEC
0
SECTION
2
TABLES
0
TABLE
2
LAYER
70
6
0
LAYER
2
0
70
0
62
7
6
CONTINUOUS
0
LAYER
2
WING_MAIN
70
0
62
3
6
CONTINUOUS
0
LAYER
2
H_TAIL
70
0
62
3
6
CONTINUOUS
0
LAYER
2
V_TAIL
70
0
62
3
6
CONTINUOUS
0
LAYER
2
AIRFOIL_ROOT
70
0
62
5
6
CONTINUOUS
0
LAYER
2
CG_NP
70
0
62
1
6
CONTINUOUS
0
ENDTAB
0
ENDSEC
0
SECTION
2
ENTITIES
0
POLYLINE
8
WING_MAIN
66
1
70
1
0
VERTEX
8
WING_MAIN
10
0.124710
20
0.000000
30
0.0
0
VERTEX
8
WING_MAIN
10
0.124710
20
0.377909
30
0.0
0
VERTEX
8
WING_MAIN
10
0.195568
20
0.377909
30
0.0
0
VERTEX
8
WING_MAIN
10
0.242807
20
0.000000
30
0.0
0
VERTEX
8
WING_MAIN
10
0.195568
20
-0.377909
30
0.0
0
VERTEX
8
WING_MAIN
10
0.124710
20
-0.377909
30
0.0
0
VERTEX
8
WING_MAIN
10
0.124710
20
0.000000
30
0.0
0
SEQEND
8
WING_MAIN
0
POLYLINE
8
H_TAIL
66
1
70
1
0
VERTEX
8
H_TAIL
10
0.464828
20
0.000000
30
0.0
0
VERTEX
8
H_TAIL
10
0.464828
20
0.106723
30
0.0
0
VERTEX
8
H_TAIL
10
0.502774
20
0.106723
30
0.0
0
VERTEX
8
H_TAIL
10
0.512261
20
0.000000
30
0.0
0
VERTEX
8
H_TAIL
10
0.502774
20
-0.106723
30
0.0
0
VERTEX
8
H_TAIL
10
0.464828
20
-0.106723
30
0.0
0
VERTEX
8
H_TAIL
10
0.464828
20
0.000000
30
0.0
0
SEQEND
8
H_TAIL
0
POLYLINE
8
V_TAIL
66
1
70
1
0
VERTEX
8
V_TAIL
10
0.444828
20
0.000000
30
0.0
0
VERTEX
8
V_TAIL
10
0.525960
20
0.000000
30
0.0
0
VERTEX
8
V_TAIL
10
0.527956
20
0.091274
30
0.0
0
VERTEX
8
V_TAIL
10
0.487390
20
0.091274
30
0.0
0
VERTEX
8
V_TAIL
10
0.444828
20
0.000000
30
0.0
0
SEQEND
8
V_TAIL
0
POLYLINE
8
AIRFOIL_ROOT
66
1
70
1
0
VERTEX
8
AIRFOIL_ROOT
10
0.000000
20
-0.500000
30
0.0
0
VERTEX
8
AIRFOIL_ROOT
10
0.000084
20
-0.499308
30
0.0
0
VERTEX
8
AIRFOIL_ROOT
10
0.000335
20
-0.498632
30
0.0
0
VERTEX
8
AIRFOIL_ROOT
10
0.000752
20
-0.497974
30
0.0
0
VERTEX
8
AIRFOIL_ROOT
10
0.001334
20
-0.497335
30
0.0
0
VERTEX
8
AIRFOIL_ROOT
10
0.002080
20
-0.496716
30
0.0
0
VERTEX
8
AIRFOIL_ROOT
10
0.002988
20
-0.496119
30
0.0
0
VERTEX
8
AIRFOIL_ROOT
10
0.004054
20
-0.495546
30
0.0
0
VERTEX
8
AIRFOIL_ROOT
10
0.005277
20
-0.495000
30
0.0
0
VERTEX
8
AIRFOIL_ROOT
10
0.006652
20
-0.494482
30
0.0
0
VERTEX
8
AIRFOIL_ROOT
10
0.008175
20
-0.493995
30
0.0
0
VERTEX
8
AIRFOIL_ROOT
10
0.009843
20
-0.493541
30
0.0
0
VERTEX
8
AIRFOIL_ROOT
10
0.011650
20
-0.493121
30
0.0
0
VERTEX
8
AIRFOIL_ROOT
10
0.013591
20
-0.492739
30
0.0
0
VERTEX
8
AIRFOIL_ROOT
10
0.015661
20
-0.492395
30
0.0
0
VERTEX
8
AIRFOIL_ROOT
10
0.017854
20
-0.492092
30
0.0
0
VERTEX
8
AIRFOIL_ROOT
10
0.020164
20
-0.491829
30
0.0
0
VERTEX
8
AIRFOIL_ROOT
10
0.022585
20
-0.491609
30
0.0
0
VERTEX
8
AIRFOIL_ROOT
10
0.025108
20
-0.491431
30
0.0
0
VERTEX
8
AIRFOIL_ROOT
10
0.027728
20
-0.491296
30
0.0
0
VERTEX
8
AIRFOIL_ROOT
10
0.030436
20
-0.491203
30
0.0
0
VERTEX
8
AIRFOIL_ROOT
10
0.033226
20
-0.491152
30
0.0
0
VERTEX
8
AIRFOIL_ROOT
10
0.036089
20
-0.491141
30
0.0
0
VERTEX
8
AIRFOIL_ROOT
10
0.039017
20
-0.491170
30
0.0
0
VERTEX
8
AIRFOIL_ROOT
10
0.042002
20
-0.491237
30
0.0
0
VERTEX
8
AIRFOIL_ROOT
10
0.045035
20
-0.491339
30
0.0
0
VERTEX
8
AIRFOIL_ROOT
10
0.048107
20
-0.491475
30
0.0
0
VERTEX
8
AIRFOIL_ROOT
10
0.051211
20
-0.491643
30
0.0
0
VERTEX
8
AIRFOIL_ROOT
10
0.054337
20
-0.491840
30
0.0
0
VERTEX
8
AIRFOIL_ROOT
10
0.057476
20
-0.492064
30
0.0
0
VERTEX
8
AIRFOIL_ROOT
10
0.060620
20
-0.492312
30
0.0
0
VERTEX
8
AIRFOIL_ROOT
10
0.063760
20
-0.492581
30
0.0
0
VERTEX
8
AIRFOIL_ROOT
10
0.066886
20
-0.492870
30
0.0
0
VERTEX
8
AIRFOIL_ROOT
10
0.069989
20
-0.493175
30
0.0
0
VERTEX
8
AIRFOIL_ROOT
10
0.073062
20
-0.493494
30
0.0
0
VERTEX
8
AIRFOIL_ROOT
10
0.076095
20
-0.493825
30
0.0
0
VERTEX
8
AIRFOIL_ROOT
10
0.079080
20
-0.494165
30
0.0
0
VERTEX
8
AIRFOIL_ROOT
10
0.082008
20
-0.494511
30
0.0
0
VERTEX
8
AIRFOIL_ROOT
10
0.084871
20
-0.494863
30
0.0
0
VERTEX
8
AIRFOIL_ROOT
10
0.087660
20
-0.495217
30
0.0
0
VERTEX
8
AIRFOIL_ROOT
10
0.090369
20
-0.495571
30
0.0
0
VERTEX
8
AIRFOIL_ROOT
10
0.092989
20
-0.495923
30
0.0
0
VERTEX
8
AIRFOIL_ROOT
10
0.095512
20
-0.496272
30
0.0
0
VERTEX
8
AIRFOIL_ROOT
10
0.097932
20
-0.496615
30
0.0
0
VERTEX
8
AIRFOIL_ROOT
10
0.100242
20
-0.496949
30
0.0
0
VERTEX
8
AIRFOIL_ROOT
10
0.102435
20
-0.497275
30
0.0
0
VERTEX
8
AIRFOIL_ROOT
10
0.104506
20
-0.497588
30
0.0
0
VERTEX
8
AIRFOIL_ROOT
10
0.106447
20
-0.497888
30
0.0
0
VERTEX
8
AIRFOIL_ROOT
10
0.108254
20
-0.498172
30
0.0
0
VERTEX
8
AIRFOIL_ROOT
10
0.109922
20
-0.498439
30
0.0
0
VERTEX
8
AIRFOIL_ROOT
10
0.111445
20
-0.498687
30
0.0
0
VERTEX
8
AIRFOIL_ROOT
10
0.112820
20
-0.498913
30
0.0
0
VERTEX
8
AIRFOIL_ROOT
10
0.114042
20
-0.499118
30
0.0
0
VERTEX
8
AIRFOIL_ROOT
10
0.115109
20
-0.499298
30
0.0
0
VERTEX
8
AIRFOIL_ROOT
10
0.116016
20
-0.499453
30
0.0
0
VERTEX
8
AIRFOIL_ROOT
10
0.116762
20
-0.499582
30
0.0
0
VERTEX
8
AIRFOIL_ROOT
10
0.117345
20
-0.499683
30
0.0
0
VERTEX
8
AIRFOIL_ROOT
10
0.117762
20
-0.499755
30
0.0
0
VERTEX
8
AIRFOIL_ROOT
10
0.118013
20
-0.499799
30
0.0
0
VERTEX
8
AIRFOIL_ROOT
10
0.118097
20
-0.499814
30
0.0
0
VERTEX
8
AIRFOIL_ROOT
10
0.118097
20
-0.500186
30
0.0
0
VERTEX
8
AIRFOIL_ROOT
10
0.118013
20
-0.500201
30
0.0
0
VERTEX
8
AIRFOIL_ROOT
10
0.117762
20
-0.500245
30
0.0
0
VERTEX
8
AIRFOIL_ROOT
10
0.117345
20
-0.500317
30
0.0
0
VERTEX
8
AIRFOIL_ROOT
10
0.116762
20
-0.500418
30
0.0
0
VERTEX
8
AIRFOIL_ROOT
10
0.116016
20
-0.500547
30
0.0
0
VERTEX
8
AIRFOIL_ROOT
10
0.115109
20
-0.500702
30
0.0
0
VERTEX
8
AIRFOIL_ROOT
10
0.114042
20
-0.500882
30
0.0
0
VERTEX
8
AIRFOIL_ROOT
10
0.112820
20
-0.501087
30
0.0
0
VERTEX
8
AIRFOIL_ROOT
10
0.111445
20
-0.501313
30
0.0
0
VERTEX
8
AIRFOIL_ROOT
10
0.109922
20
-0.501561
30
0.0
0
VERTEX
8
AIRFOIL_ROOT
10
0.108254
20
-0.501828
30
0.0
0
VERTEX
8
AIRFOIL_ROOT
10
0.106447
20
-0.502112
30
0.0
0
VERTEX
8
AIRFOIL_ROOT
10
0.104506
20
-0.502412
30
0.0
0
VERTEX
8
AIRFOIL_ROOT
10
0.102435
20
-0.502725
30
0.0
0
VERTEX
8
AIRFOIL_ROOT
10
0.100242
20
-0.503051
30
0.0
0
VERTEX
8
AIRFOIL_ROOT
10
0.097932
20
-0.503385
30
0.0
0
VERTEX
8
AIRFOIL_ROOT
10
0.095512
20
-0.503728
30
0.0
0
VERTEX
8
AIRFOIL_ROOT
10
0.092989
20
-0.504077
30
0.0
0
VERTEX
8
AIRFOIL_ROOT
10
0.090369
20
-0.504429
30
0.0
0
VERTEX
8
AIRFOIL_ROOT
10
0.087660
20
-0.504783
30
0.0
0
VERTEX
8
AIRFOIL_ROOT
10
0.084871
20
-0.505137
30
0.0
0
VERTEX
8
AIRFOIL_ROOT
10
0.082008
20
-0.505489
30
0.0
0
VERTEX
8
AIRFOIL_ROOT
10
0.079080
20
-0.505835
30
0.0
0
VERTEX
8
AIRFOIL_ROOT
10
0.076095
20
-0.506175
30
0.0
0
VERTEX
8
AIRFOIL_ROOT
10
0.073062
20
-0.506506
30
0.0
0
VERTEX
8
AIRFOIL_ROOT
10
0.069989
20
-0.506825
30
0.0
0
VERTEX
8
AIRFOIL_ROOT
10
0.066886
20
-0.507130
30
0.0
0
VERTEX
8
AIRFOIL_ROOT
10
0.063760
20
-0.507419
30
0.0
0
VERTEX
8
AIRFOIL_ROOT
10
0.060620
20
-0.507688
30
0.0
0
VERTEX
8
AIRFOIL_ROOT
10
0.057476
20
-0.507936
30
0.0
0
VERTEX
8
AIRFOIL_ROOT
10
0.054337
20
-0.508160
30
0.0
0
VERTEX
8
AIRFOIL_ROOT
10
0.051211
20
-0.508357
30
0.0
0
VERTEX
8
AIRFOIL_ROOT
10
0.048107
20
-0.508525
30
0.0
0
VERTEX
8
AIRFOIL_ROOT
10
0.045035
20
-0.508661
30
0.0
0
VERTEX
8
AIRFOIL_ROOT
10
0.042002
20
-0.508763
30
0.0
0
VERTEX
8
AIRFOIL_ROOT
10
0.039017
20
-0.508830
30
0.0
0
VERTEX
8
AIRFOIL_ROOT
10
0.036089
20
-0.508859
30
0.0
0
VERTEX
8
AIRFOIL_ROOT
10
0.033226
20
-0.508848
30
0.0
0
VERTEX
8
AIRFOIL_ROOT
10
0.030436
20
-0.508797
30
0.0
0
VERTEX
8
AIRFOIL_ROOT
10
0.027728
20
-0.508704
30
0.0
0
VERTEX
8
AIRFOIL_ROOT
10
0.025108
20
-0.508569
30
0.0
0
VERTEX
8
AIRFOIL_ROOT
10
0.022585
20
-0.508391
30
0.0
0
VERTEX
8
AIRFOIL_ROOT
10
0.020164
20
-0.508171
30
0.0
0
VERTEX
8
AIRFOIL_ROOT
10
0.017854
20
-0.507908
30
0.0
0
VERTEX
8
AIRFOIL_ROOT
10
0.015661
20
-0.507605
30
0.0
0
VERTEX
8
AIRFOIL_ROOT
10
0.013591
20
-0.507261
30
0.0
0
VERTEX
8
AIRFOIL_ROOT
10
0.011650
20
-0.506879
30
0.0
0
VERTEX
8
AIRFOIL_ROOT
10
0.009843
20
-0.506459
30
0.0
0
VERTEX
8
AIRFOIL_ROOT
10
0.008175
20
-0.506005
30
0.0
0
VERTEX
8
AIRFOIL_ROOT
10
0.006652
20
-0.505518
30
0.0
0
VERTEX
8
AIRFOIL_ROOT
10
0.005277
20
-0.505000
30
0.0
0
VERTEX
8
AIRFOIL_ROOT
10
0.004054
20
-0.504454
30
0.0
0
VERTEX
8
AIRFOIL_ROOT
10
0.002988
20
-0.503881
30
0.0
0
VERTEX
8
AIRFOIL_ROOT
10
0.002080
20
-0.503284
30
0.0
0
VERTEX
8
AIRFOIL_ROOT
10
0.001334
20
-0.502665
30
0.0
0
VERTEX
8
AIRFOIL_ROOT
10
0.000752
20
-0.502026
30
0.0
0
VERTEX
8
AIRFOIL_ROOT
10
0.000335
20
-0.501368
30
0.0
0
VERTEX
8
AIRFOIL_ROOT
10
0.000084
20
-0.500692
30
0.0
0
VERTEX
8
AIRFOIL_ROOT
10
0.000000
20
-0.500000
30
0.0
0
SEQEND
8
AIRFOIL_ROOT
0
CIRCLE
8
CG_NP
10
0.370754
20
0.000000
30
0.0
40
0.010000
0
CIRCLE
8
CG_NP
10
0.380399
20
0.000000
30
0.0
40
0.010000
0
ENDSEC
0
EOF
