0
SECTION
2
HEADER
9
$ACADVER
1
AC1009
0
ENDSEC
0
SECTION
2
TABLES
0
TABLE
2
LAYER
70
6
0
LAYER
2
0
70
0
62
7
6
CONTINUOUS
0
LAYER
2
WING_MAIN
70
0
62
3
6
CONTINUOUS
0
LAYER
2
H_TAIL
70
0
62
3
6
CONTINUOUS
0
LAYER
2
V_TAIL
70
0
62
3
6
CONTINUOUS
0
LAYER
2
AIRFOIL_ROOT
70
0
62
5
6
CONTINUOUS
0
LAYER
2
CG_NP
70
0
62
1
6
CONTINUOUS
0
ENDTAB
0
ENDSEC
0
SECTION
2
ENTITIES
0
POLYLINE
8
WING_MAIN
66
1
70
1
0
VERTEX
8
WING_MAIN
10
0.413366
20
0.000000
30
0.0
0
VERTEX
8
WING_MAIN
10
0.413366
20
1.252623
30
0.0
0
VERTEX
8
WING_MAIN
10
0.648232
20
1.252623
30
0.0
0
VERTEX
8
WING_MAIN
10
0.804810
20
0.000000
30
0.0
0
VERTEX
8
WING_MAIN
10
0.648232
20
-1.252623
30
0.0
0
VERTEX
8
WING_MAIN
10
0.413366
20
-1.252623
30
0.0
0
VERTEX
8
WING_MAIN
10
0.413366
20
0.000000
30
0.0
0
SEQEND
8
WING_MAIN
0
POLYLINE
8
H_TAIL
66
1
70
1
0
VERTEX
8
H_TAIL
10
1.540726
20
0.000000
30
0.0
0
VERTEX
8
H_TAIL
10
1.540726
20
0.353747
30
0.0
0
VERTEX
8
H_TAIL
10
1.666503
20
0.353747
30
0.0
0
VERTEX
8
H_TAIL
10
1.697947
20
0.000000
30
0.0
0
VERTEX
8
H_TAIL
10
1.666503
20
-0.353747
30
0.0
0
VERTEX
8
H_TAIL
10
1.540726
20
-0.353747
30
0.0
0
VERTEX
8
H_TAIL
10
1.540726
20
0.000000
30
0.0
0
SEQEND
8
H_TAIL
0
POLYLINE
8
V_TAIL
66
1
70
1
0
VERTEX
8
V_TAIL
10
1.520726
20
0.000000
30
0.0
0
VERTEX
8
V_TAIL
10
1.789648
20
0.000000
30
0.0
0
VERTEX
8
V_TAIL
10
1.796262
20
0.302537
30
0.0
0
VERTEX
8
V_TAIL
10
1.661801
20
0.302537
30
0.0
0
VERTEX
8
V_TAIL
10
1.520726
20
0.000000
30
0.0
0
SEQEND
8
V_TAIL
0
POLYLINE
8
AIRFOIL_ROOT
66
1
70
1
0
VERTEX
8
AIRFOIL_ROOT
10
0.000000
20
-0.500000
30
0.0
0
VERTEX
8
AIRFOIL_ROOT
10
0.000277
20
-0.498159
30
0.0
0
VERTEX
8
AIRFOIL_ROOT
10
0.001109
20
-0.496193
30
0.0
0
VERTEX
8
AIRFOIL_ROOT
10
0.002492
20
-0.494106
30
0.0
0
VERTEX
8
AIRFOIL_ROOT
10
0.004423
20
-0.491907
30
0.0
0
VERTEX
8
AIRFOIL_ROOT
10
0.006896
20
-0.489606
30
0.0
0
VERTEX
8
AIRFOIL_ROOT
10
0.009904
20
-0.487215
30
0.0
0
VERTEX
8
AIRFOIL_ROOT
10
0.013439
20
-0.484752
30
0.0
0
VERTEX
8
AIRFOIL_ROOT
10
0.017491
20
-0.482234
30
0.0
0
VERTEX
8
AIRFOIL_ROOT
10
0.022048
20
-0.479682
30
0.0
0
VERTEX
8
AIRFOIL_ROOT
10
0.027097
20
-0.477119
30
0.0
0
VERTEX
8
AIRFOIL_ROOT
10
0.032624
20
-0.474567
30
0.0
0
VERTEX
8
AIRFOIL_ROOT
10
0.038614
20
-0.472053
30
0.0
0
VERTEX
8
AIRFOIL_ROOT
10
0.045049
20
-0.469601
30
0.0
0
VERTEX
8
AIRFOIL_ROOT
10
0.051911
20
-0.467237
30
0.0
0
VERTEX
8
AIRFOIL_ROOT
10
0.059180
20
-0.464987
30
0.0
0
VERTEX
8
AIRFOIL_ROOT
10
0.066837
20
-0.462876
30
0.0
0
VERTEX
8
AIRFOIL_ROOT
10
0.074859
20
-0.460929
30
0.0
0
VERTEX
8
AIRFOIL_ROOT
10
0.083224
20
-0.459168
30
0.0
0
VERTEX
8
AIRFOIL_ROOT
10
0.091907
20
-0.457615
30
0.0
0
VERTEX
8
AIRFOIL_ROOT
10
0.100885
20
-0.456290
30
0.0
0
VERTEX
8
AIRFOIL_ROOT
10
0.110132
20
-0.455210
30
0.0
0
VERTEX
8
AIRFOIL_ROOT
10
0.119621
20
-0.454390
30
0.0
0
VERTEX
8
AIRFOIL_ROOT
10
0.129326
20
-0.453842
30
0.0
0
VERTEX
8
AIRFOIL_ROOT
10
0.139219
20
-0.453577
30
0.0
0
VERTEX
8
AIRFOIL_ROOT
10
0.149272
20
-0.453600
30
0.0
0
VERTEX
8
AIRFOIL_ROOT
10
0.159457
20
-0.453912
30
0.0
0
VERTEX
8
AIRFOIL_ROOT
10
0.169745
20
-0.454428
30
0.0
0
VERTEX
8
AIRFOIL_ROOT
10
0.180106
20
-0.455116
30
0.0
0
VERTEX
8
AIRFOIL_ROOT
10
0.190512
20
-0.455968
30
0.0
0
VERTEX
8
AIRFOIL_ROOT
10
0.200933
20
-0.456979
30
0.0
0
VERTEX
8
AIRFOIL_ROOT
10
0.211338
20
-0.458139
30
0.0
0
VERTEX
8
AIRFOIL_ROOT
10
0.221700
20
-0.459441
30
0.0
0
VERTEX
8
AIRFOIL_ROOT
10
0.231987
20
-0.460874
30
0.0
0
VERTEX
8
AIRFOIL_ROOT
10
0.242172
20
-0.462427
30
0.0
0
VERTEX
8
AIRFOIL_ROOT
10
0.252226
20
-0.464088
30
0.0
0
VERTEX
8
AIRFOIL_ROOT
10
0.262119
20
-0.465845
30
0.0
0
VERTEX
8
AIRFOIL_ROOT
10
0.271824
20
-0.467684
30
0.0
0
VERTEX
8
AIRFOIL_ROOT
10
0.281313
20
-0.469592
30
0.0
0
VERTEX
8
AIRFOIL_ROOT
10
0.290560
20
-0.471554
30
0.0
0
VERTEX
8
AIRFOIL_ROOT
10
0.299538
20
-0.473556
30
0.0
0
VERTEX
8
AIRFOIL_ROOT
10
0.308221
20
-0.475583
30
0.0
0
VERTEX
8
AIRFOIL_ROOT
10
0.316586
20
-0.477619
30
0.0
0
VERTEX
8
AIRFOIL_ROOT
10
0.324608
20
-0.479648
30
0.0
0
VERTEX
8
AIRFOIL_ROOT
10
0.332264
20
-0.481655
30
0.0
0
VERTEX
8
AIRFOIL_ROOT
10
0.339534
20
-0.483624
30
0.0
0
VERTEX
8
AIRFOIL_ROOT
10
0.346396
20
-0.485541
30
0.0
0
VERTEX
8
AIRFOIL_ROOT
10
0.352831
20
-0.487388
30
0.0
0
VERTEX
8
AIRFOIL_ROOT
10
0.358820
20
-0.489151
30
0.0
0
VERTEX
8
AIRFOIL_ROOT
10
0.364348
20
-0.490817
30
0.0
0
VERTEX
8
AIRFOIL_ROOT
10
0.369397
20
-0.492370
30
0.0
0
VERTEX
8
AIRFOIL_ROOT
10
0.373954
20
-0.493799
30
0.0
0
VERTEX
8
AIRFOIL_ROOT
10
0.378006
20
-0.495090
30
0.0
0
VERTEX
8
AIRFOIL_ROOT
10
0.381541
20
-0.496233
30
0.0
0
VERTEX
8
AIRFOIL_ROOT
10
0.384549
20
-0.497217
30
0.0
0
VERTEX
8
AIRFOIL_ROOT
10
0.387022
20
-0.498035
30
0.0
0
VERTEX
8
AIRFOIL_ROOT
10
0.388953
20
-0.498679
30
0.0
0
VERTEX
8
AIRFOIL_ROOT
10
0.390336
20
-0.499143
30
0.0
0
VERTEX
8
AIRFOIL_ROOT
10
0.391167
20
-0.499423
30
0.0
0
VERTEX
8
AIRFOIL_ROOT
10
0.391445
20
-0.499516
30
0.0
0
VERTEX
8
AIRFOIL_ROOT
10
0.391445
20
-0.500484
30
0.0
0
VERTEX
8
AIRFOIL_ROOT
10
0.391167
20
-0.500466
30
0.0
0
VERTEX
8
AIRFOIL_ROOT
10
0.390336
20
-0.500415
30
0.0
0
VERTEX
8
AIRFOIL_ROOT
10
0.388953
20
-0.500330
30
0.0
0
VERTEX
8
AIRFOIL_ROOT
10
0.387022
20
-0.500212
30
0.0
0
VERTEX
8
AIRFOIL_ROOT
10
0.384549
20
-0.500065
30
0.0
0
VERTEX
8
AIRFOIL_ROOT
10
0.381541
20
-0.499889
30
0.0
0
VERTEX
8
AIRFOIL_ROOT
10
0.378006
20
-0.499688
30
0.0
0
VERTEX
8
AIRFOIL_ROOT
10
0.373954
20
-0.499465
30
0.0
0
VERTEX
8
AIRFOIL_ROOT
10
0.369397
20
-0.499225
30
0.0
0
VERTEX
8
AIRFOIL_ROOT
10
0.364348
20
-0.498970
30
0.0
0
VERTEX
8
AIRFOIL_ROOT
10
0.358820
20
-0.498705
30
0.0
0
VERTEX
8
AIRFOIL_ROOT
10
0.352831
20
-0.498436
30
0.0
0
VERTEX
8
AIRFOIL_ROOT
10
0.346396
20
-0.498168
30
0.0
0
VERTEX
8
AIRFOIL_ROOT
10
0.339534
20
-0.497906
30
0.0
0
VERTEX
8
AIRFOIL_ROOT
10
0.332264
20
-0.497655
30
0.0
0
VERTEX
8
AIRFOIL_ROOT
10
0.324608
20
-0.497421
30
0.0
0
VERTEX
8
AIRFOIL_ROOT
10
0.316586
20
-0.497210
30
0.0
0
VERTEX
8
AIRFOIL_ROOT
10
0.308221
20
-0.497026
30
0.0
0
VERTEX
8
AIRFOIL_ROOT
10
0.299538
20
-0.496874
30
0.0
0
VERTEX
8
AIRFOIL_ROOT
10
0.290560
20
-0.496759
30
0.0
0
VERTEX
8
AIRFOIL_ROOT
10
0.281313
20
-0.496684
30
0.0
0
VERTEX
8
AIRFOIL_ROOT
10
0.271824
20
-0.496653
30
0.0
0
VERTEX
8
AIRFOIL_ROOT
10
0.262119
20
-0.496667
30
0.0
0
VERTEX
8
AIRFOIL_ROOT
10
0.252226
20
-0.496729
30
0.0
0
VERTEX
8
AIRFOIL_ROOT
10
0.242172
20
-0.496839
30
0.0
0
VERTEX
8
AIRFOIL_ROOT
10
0.231987
20
-0.496995
30
0.0
0
VERTEX
8
AIRFOIL_ROOT
10
0.221700
20
-0.497197
30
0.0
0
VERTEX
8
AIRFOIL_ROOT
10
0.211338
20
-0.497441
30
0.0
0
VERTEX
8
AIRFOIL_ROOT
10
0.200933
20
-0.497723
30
0.0
0
VERTEX
8
AIRFOIL_ROOT
10
0.190512
20
-0.498039
30
0.0
0
VERTEX
8
AIRFOIL_ROOT
10
0.180106
20
-0.498382
30
0.0
0
VERTEX
8
AIRFOIL_ROOT
10
0.169745
20
-0.498746
30
0.0
0
VERTEX
8
AIRFOIL_ROOT
10
0.159457
20
-0.499122
30
0.0
0
VERTEX
8
AIRFOIL_ROOT
10
0.149272
20
-0.499529
30
0.0
0
VERTEX
8
AIRFOIL_ROOT
10
0.139219
20
-0.500027
30
0.0
0
VERTEX
8
AIRFOIL_ROOT
10
0.129326
20
-0.500607
30
0.0
0
VERTEX
8
AIRFOIL_ROOT
10
0.119621
20
-0.501254
30
0.0
0
VERTEX
8
AIRFOIL_ROOT
10
0.110132
20
-0.501950
30
0.0
0
VERTEX
8
AIRFOIL_ROOT
10
0.100885
20
-0.502679
30
0.0
0
VERTEX
8
AIRFOIL_ROOT
10
0.091907
20
-0.503425
30
0.0
0
VERTEX
8
AIRFOIL_ROOT
10
0.083224
20
-0.504168
30
0.0
0
VERTEX
8
AIRFOIL_ROOT
10
0.074859
20
-0.504893
30
0.0
0
VERTEX
8
AIRFOIL_ROOT
10
0.066837
20
-0.505581
30
0.0
0
VERTEX
8
AIRFOIL_ROOT
10
0.059180
20
-0.506215
30
0.0
0
VERTEX
8
AIRFOIL_ROOT
10
0.051911
20
-0.506780
30
0.0
0
VERTEX
8
AIRFOIL_ROOT
10
0.045049
20
-0.507258
30
0.0
0
VERTEX
8
AIRFOIL_ROOT
10
0.038614
20
-0.507636
30
0.0
0
VERTEX
8
AIRFOIL_ROOT
10
0.032624
20
-0.507897
30
0.0
0
VERTEX
8
AIRFOIL_ROOT
10
0.027097
20
-0.508030
30
0.0
0
VERTEX
8
AIRFOIL_ROOT
10
0.022048
20
-0.508020
30
0.0
0
VERTEX
8
AIRFOIL_ROOT
10
0.017491
20
-0.507858
30
0.0
0
VERTEX
8
AIRFOIL_ROOT
10
0.013439
20
-0.507531
30
0.0
0
VERTEX
8
AIRFOIL_ROOT
10
0.009904
20
-0.507030
30
0.0
0
VERTEX
8
AIRFOIL_ROOT
10
0.006896
20
-0.506348
30
0.0
0
VERTEX
8
AIRFOIL_ROOT
10
0.004423
20
-0.505477
30
0.0
0
VERTEX
8
AIRFOIL_ROOT
10
0.002492
20
-0.504410
30
0.0
0
VERTEX
8
AIRFOIL_ROOT
10
0.001109
20
-0.503144
30
0.0
0
VERTEX
8
AIRFOIL_ROOT
10
0.000277
20
-0.501675
30
0.0
0
VERTEX
8
AIRFOIL_ROOT
10
0.000000
20
-0.500000
30
0.0
0
SEQEND
8
AIRFOIL_ROOT
0
CIRCLE
8
CG_NP
10
0.692895
20
0.000000
30
0.0
40
0.010000
0
CIRCLE
8
CG_NP
10
0.724863
20
0.000000
30
0.0
40
0.010000
0
ENDSEC
0
EOF
