0
SECTION
2
HEADER
9
$ACADVER
1
AC1009
0
ENDSEC
0
SECTION
2
TABLES
0
TABLE
2
LAYER
70
6
0
LAYER
2
0
70
0
62
7
6
CONTINUOUS
0
LAYER
2
WING_MAIN
70
0
62
3
6
CONTINUOUS
0
LAYER
2
H_TAIL
70
0
62
3
6
CONTINUOUS
0
LAYER
2
V_TAIL
70
0
62
3
6
CONTINUOUS
0
LAYER
2
AIRFOIL_ROOT
70
0
62
5
6
CONTINUOUS
0
LAYER
2
CG_NP
70
0
62
1
6
CONTINUOUS
0
ENDTAB
0
ENDSEC
0
SECTION
2
ENTITIES
0
POLYLINE
8
WING_MAIN
66
1
70
1
0
VERTEX
8
WING_MAIN
10
0.373632
20
0.000000
30
0.0
0
VERTEX
8
WING_MAIN
10
0.373632
20
1.132217
30
0.0
0
VERTEX
8
WING_MAIN
10
0.585922
20
1.132217
30
0.0
0
VERTEX
8
WING_MAIN
10
0.727449
20
0.000000
30
0.0
0
VERTEX
8
WING_MAIN
10
0.585922
20
-1.132217
30
0.0
0
VERTEX
8
WING_MAIN
10
0.373632
20
-1.132217
30
0.0
0
VERTEX
8
WING_MAIN
10
0.373632
20
0.000000
30
0.0
0
SEQEND
8
WING_MAIN
0
POLYLINE
8
H_TAIL
66
1
70
1
0
VERTEX
8
H_TAIL
10
1.392627
20
0.000000
30
0.0
0
VERTEX
8
H_TAIL
10
1.392627
20
0.319744
30
0.0
0
VERTEX
8
H_TAIL
10
1.506313
20
0.319744
30
0.0
0
VERTEX
8
H_TAIL
10
1.534735
20
0.000000
30
0.0
0
VERTEX
8
H_TAIL
10
1.506313
20
-0.319744
30
0.0
0
VERTEX
8
H_TAIL
10
1.392627
20
-0.319744
30
0.0
0
VERTEX
8
H_TAIL
10
1.392627
20
0.000000
30
0.0
0
SEQEND
8
H_TAIL
0
POLYLINE
8
V_TAIL
66
1
70
1
0
VERTEX
8
V_TAIL
10
1.372627
20
0.000000
30
0.0
0
VERTEX
8
V_TAIL
10
1.615699
20
0.000000
30
0.0
0
VERTEX
8
V_TAIL
10
1.621678
20
0.273456
30
0.0
0
VERTEX
8
V_TAIL
10
1.500142
20
0.273456
30
0.0
0
VERTEX
8
V_TAIL
10
1.372627
20
0.000000
30
0.0
0
SEQEND
8
V_TAIL
0
POLYLINE
8
AIRFOIL_ROOT
66
1
70
1
0
VERTEX
8
AIRFOIL_ROOT
10
0.000000
20
-0.500000
30
0.0
0
VERTEX
8
AIRFOIL_ROOT
10
0.000251
20
-0.498323
30
0.0
0
VERTEX
8
AIRFOIL_ROOT
10
0.001002
20
-0.496585
30
0.0
0
VERTEX
8
AIRFOIL_ROOT
10
0.002252
20
-0.494789
30
0.0
0
VERTEX
8
AIRFOIL_ROOT
10
0.003998
20
-0.492941
30
0.0
0
VERTEX
8
AIRFOIL_ROOT
10
0.006233
20
-0.491049
30
0.0
0
VERTEX
8
AIRFOIL_ROOT
10
0.008952
20
-0.489123
30
0.0
0
VERTEX
8
AIRFOIL_ROOT
10
0.012147
20
-0.487174
30
0.0
0
VERTEX
8
AIRFOIL_ROOT
10
0.015810
20
-0.485215
30
0.0
0
VERTEX
8
AIRFOIL_ROOT
10
0.019928
20
-0.483260
30
0.0
0
VERTEX
8
AIRFOIL_ROOT
10
0.024492
20
-0.481325
30
0.0
0
VERTEX
8
AIRFOIL_ROOT
10
0.029488
20
-0.479425
30
0.0
0
VERTEX
8
AIRFOIL_ROOT
10
0.034902
20
-0.477577
30
0.0
0
VERTEX
8
AIRFOIL_ROOT
10
0.040718
20
-0.475799
30
0.0
0
VERTEX
8
AIRFOIL_ROOT
10
0.046921
20
-0.474105
30
0.0
0
VERTEX
8
AIRFOIL_ROOT
10
0.053492
20
-0.472514
30
0.0
0
VERTEX
8
AIRFOIL_ROOT
10
0.060412
20
-0.471040
30
0.0
0
VERTEX
8
AIRFOIL_ROOT
10
0.067663
20
-0.469700
30
0.0
0
VERTEX
8
AIRFOIL_ROOT
10
0.075224
20
-0.468506
30
0.0
0
VERTEX
8
AIRFOIL_ROOT
10
0.083073
20
-0.467471
30
0.0
0
VERTEX
8
AIRFOIL_ROOT
10
0.091188
20
-0.466607
30
0.0
0
VERTEX
8
AIRFOIL_ROOT
10
0.099545
20
-0.465923
30
0.0
0
VERTEX
8
AIRFOIL_ROOT
10
0.108122
20
-0.465427
30
0.0
0
VERTEX
8
AIRFOIL_ROOT
10
0.116895
20
-0.465125
30
0.0
0
VERTEX
8
AIRFOIL_ROOT
10
0.125837
20
-0.465022
30
0.0
0
VERTEX
8
AIRFOIL_ROOT
10
0.134924
20
-0.465120
30
0.0
0
VERTEX
8
AIRFOIL_ROOT
10
0.144130
20
-0.465417
30
0.0
0
VERTEX
8
AIRFOIL_ROOT
10
0.153429
20
-0.465862
30
0.0
0
VERTEX
8
AIRFOIL_ROOT
10
0.162794
20
-0.466433
30
0.0
0
VERTEX
8
AIRFOIL_ROOT
10
0.172199
20
-0.467125
30
0.0
0
VERTEX
8
AIRFOIL_ROOT
10
0.181618
20
-0.467931
30
0.0
0
VERTEX
8
AIRFOIL_ROOT
10
0.191024
20
-0.468844
30
0.0
0
VERTEX
8
AIRFOIL_ROOT
10
0.200389
20
-0.469858
30
0.0
0
VERTEX
8
AIRFOIL_ROOT
10
0.209688
20
-0.470963
30
0.0
0
VERTEX
8
AIRFOIL_ROOT
10
0.218894
20
-0.472152
30
0.0
0
VERTEX
8
AIRFOIL_ROOT
10
0.227981
20
-0.473415
30
0.0
0
VERTEX
8
AIRFOIL_ROOT
10
0.236923
20
-0.474744
30
0.0
0
VERTEX
8
AIRFOIL_ROOT
10
0.245695
20
-0.476128
30
0.0
0
VERTEX
8
AIRFOIL_ROOT
10
0.254272
20
-0.477557
30
0.0
0
VERTEX
8
AIRFOIL_ROOT
10
0.262630
20
-0.479021
30
0.0
0
VERTEX
8
AIRFOIL_ROOT
10
0.270745
20
-0.480510
30
0.0
0
VERTEX
8
AIRFOIL_ROOT
10
0.278594
20
-0.482012
30
0.0
0
VERTEX
8
AIRFOIL_ROOT
10
0.286154
20
-0.483517
30
0.0
0
VERTEX
8
AIRFOIL_ROOT
10
0.293405
20
-0.485013
30
0.0
0
VERTEX
8
AIRFOIL_ROOT
10
0.300326
20
-0.486491
30
0.0
0
VERTEX
8
AIRFOIL_ROOT
10
0.306897
20
-0.487938
30
0.0
0
VERTEX
8
AIRFOIL_ROOT
10
0.313099
20
-0.489344
30
0.0
0
VERTEX
8
AIRFOIL_ROOT
10
0.318916
20
-0.490698
30
0.0
0
VERTEX
8
AIRFOIL_ROOT
10
0.324330
20
-0.491989
30
0.0
0
VERTEX
8
AIRFOIL_ROOT
10
0.329325
20
-0.493207
30
0.0
0
VERTEX
8
AIRFOIL_ROOT
10
0.333889
20
-0.494342
30
0.0
0
VERTEX
8
AIRFOIL_ROOT
10
0.338008
20
-0.495386
30
0.0
0
VERTEX
8
AIRFOIL_ROOT
10
0.341671
20
-0.496328
30
0.0
0
VERTEX
8
AIRFOIL_ROOT
10
0.344866
20
-0.497163
30
0.0
0
VERTEX
8
AIRFOIL_ROOT
10
0.347585
20
-0.497881
30
0.0
0
VERTEX
8
AIRFOIL_ROOT
10
0.349820
20
-0.498478
30
0.0
0
VERTEX
8
AIRFOIL_ROOT
10
0.351565
20
-0.498947
30
0.0
0
VERTEX
8
AIRFOIL_ROOT
10
0.352816
20
-0.499286
30
0.0
0
VERTEX
8
AIRFOIL_ROOT
10
0.353567
20
-0.499490
30
0.0
0
VERTEX
8
AIRFOIL_ROOT
10
0.353818
20
-0.499558
30
0.0
0
VERTEX
8
AIRFOIL_ROOT
10
0.353818
20
-0.500442
30
0.0
0
VERTEX
8
AIRFOIL_ROOT
10
0.353567
20
-0.500443
30
0.0
0
VERTEX
8
AIRFOIL_ROOT
10
0.352816
20
-0.500448
30
0.0
0
VERTEX
8
AIRFOIL_ROOT
10
0.351565
20
-0.500455
30
0.0
0
VERTEX
8
AIRFOIL_ROOT
10
0.349820
20
-0.500466
30
0.0
0
VERTEX
8
AIRFOIL_ROOT
10
0.347585
20
-0.500481
30
0.0
0
VERTEX
8
AIRFOIL_ROOT
10
0.344866
20
-0.500501
30
0.0
0
VERTEX
8
AIRFOIL_ROOT
10
0.341671
20
-0.500525
30
0.0
0
VERTEX
8
AIRFOIL_ROOT
10
0.338008
20
-0.500555
30
0.0
0
VERTEX
8
AIRFOIL_ROOT
10
0.333889
20
-0.500593
30
0.0
0
VERTEX
8
AIRFOIL_ROOT
10
0.329325
20
-0.500639
30
0.0
0
VERTEX
8
AIRFOIL_ROOT
10
0.324330
20
-0.500694
30
0.0
0
VERTEX
8
AIRFOIL_ROOT
10
0.318916
20
-0.500760
30
0.0
0
VERTEX
8
AIRFOIL_ROOT
10
0.313099
20
-0.500839
30
0.0
0
VERTEX
8
AIRFOIL_ROOT
10
0.306897
20
-0.500932
30
0.0
0
VERTEX
8
AIRFOIL_ROOT
10
0.300326
20
-0.501042
30
0.0
0
VERTEX
8
AIRFOIL_ROOT
10
0.293405
20
-0.501169
30
0.0
0
VERTEX
8
AIRFOIL_ROOT
10
0.286154
20
-0.501315
30
0.0
0
VERTEX
8
AIRFOIL_ROOT
10
0.278594
20
-0.501483
30
0.0
0
VERTEX
8
AIRFOIL_ROOT
10
0.270745
20
-0.501672
30
0.0
0
VERTEX
8
AIRFOIL_ROOT
10
0.262630
20
-0.501885
30
0.0
0
VERTEX
8
AIRFOIL_ROOT
10
0.254272
20
-0.502121
30
0.0
0
VERTEX
8
AIRFOIL_ROOT
10
0.245695
20
-0.502382
30
0.0
0
VERTEX
8
AIRFOIL_ROOT
10
0.236923
20
-0.502666
30
0.0
0
VERTEX
8
AIRFOIL_ROOT
10
0.227981
20
-0.502974
30
0.0
0
VERTEX
8
AIRFOIL_ROOT
10
0.218894
20
-0.503302
30
0.0
0
VERTEX
8
AIRFOIL_ROOT
10
0.209688
20
-0.503650
30
0.0
0
VERTEX
8
AIRFOIL_ROOT
10
0.200389
20
-0.504013
30
0.0
0
VERTEX
8
AIRFOIL_ROOT
10
0.191024
20
-0.504389
30
0.0
0
VERTEX
8
AIRFOIL_ROOT
10
0.181618
20
-0.504773
30
0.0
0
VERTEX
8
AIRFOIL_ROOT
10
0.172199
20
-0.505161
30
0.0
0
VERTEX
8
AIRFOIL_ROOT
10
0.162794
20
-0.505545
30
0.0
0
VERTEX
8
AIRFOIL_ROOT
10
0.153429
20
-0.505921
30
0.0
0
VERTEX
8
AIRFOIL_ROOT
10
0.144130
20
-0.506282
30
0.0
0
VERTEX
8
AIRFOIL_ROOT
10
0.134924
20
-0.506636
30
0.0
0
VERTEX
8
AIRFOIL_ROOT
10
0.125837
20
-0.507020
30
0.0
0
VERTEX
8
AIRFOIL_ROOT
10
0.116895
20
-0.507427
30
0.0
0
VERTEX
8
AIRFOIL_ROOT
10
0.108122
20
-0.507845
30
0.0
0
VERTEX
8
AIRFOIL_ROOT
10
0.099545
20
-0.508263
30
0.0
0
VERTEX
8
AIRFOIL_ROOT
10
0.091188
20
-0.508669
30
0.0
0
VERTEX
8
AIRFOIL_ROOT
10
0.083073
20
-0.509052
30
0.0
0
VERTEX
8
AIRFOIL_ROOT
10
0.075224
20
-0.509401
30
0.0
0
VERTEX
8
AIRFOIL_ROOT
10
0.067663
20
-0.509705
30
0.0
0
VERTEX
8
AIRFOIL_ROOT
10
0.060412
20
-0.509952
30
0.0
0
VERTEX
8
AIRFOIL_ROOT
10
0.053492
20
-0.510133
30
0.0
0
VERTEX
8
AIRFOIL_ROOT
10
0.046921
20
-0.510238
30
0.0
0
VERTEX
8
AIRFOIL_ROOT
10
0.040718
20
-0.510257
30
0.0
0
VERTEX
8
AIRFOIL_ROOT
10
0.034902
20
-0.510183
30
0.0
0
VERTEX
8
AIRFOIL_ROOT
10
0.029488
20
-0.510008
30
0.0
0
VERTEX
8
AIRFOIL_ROOT
10
0.024492
20
-0.509726
30
0.0
0
VERTEX
8
AIRFOIL_ROOT
10
0.019928
20
-0.509330
30
0.0
0
VERTEX
8
AIRFOIL_ROOT
10
0.015810
20
-0.508814
30
0.0
0
VERTEX
8
AIRFOIL_ROOT
10
0.012147
20
-0.508175
30
0.0
0
VERTEX
8
AIRFOIL_ROOT
10
0.008952
20
-0.507409
30
0.0
0
VERTEX
8
AIRFOIL_ROOT
10
0.006233
20
-0.506512
30
0.0
0
VERTEX
8
AIRFOIL_ROOT
10
0.003998
20
-0.505482
30
0.0
0
VERTEX
8
AIRFOIL_ROOT
10
0.002252
20
-0.504317
30
0.0
0
VERTEX
8
AIRFOIL_ROOT
10
0.001002
20
-0.503016
30
0.0
0
VERTEX
8
AIRFOIL_ROOT
10
0.000251
20
-0.501577
30
0.0
0
VERTEX
8
AIRFOIL_ROOT
10
0.000000
20
-0.500000
30
0.0
0
SEQEND
8
AIRFOIL_ROOT
0
CIRCLE
8
CG_NP
10
0.648551
20
0.000000
30
0.0
40
0.010000
0
CIRCLE
8
CG_NP
10
0.677446
20
0.000000
30
0.0
40
0.010000
0
ENDSEC
0
EOF
